<svg width="125" height="161" viewBox="0 0 125 161" fill="none" xmlns="http://www.w3.org/2000/svg">
<path d="M53.2123 150.006C54.4099 150.894 55.4327 151.615 56.4222 152.379C62.4563 157.04 61.0233 156.868 67.2029 152.304C68.757 151.156 70.214 149.874 71.7917 148.761C73.379 147.642 74.0851 146.345 73.3277 144.408C72.6281 142.619 73.5079 141.462 74.9125 140.366C78.6759 137.428 82.2961 134.307 86.0791 131.396C87.613 130.215 87.9896 129.069 87.138 127.339C85.8328 124.689 84.6613 121.973 83.395 119.303C83.0134 118.498 82.5815 117.191 81.6689 117.414C77.6186 118.405 72.9596 117.149 69.5783 120.681C67.1648 123.201 64.2385 124.056 60.8692 122.899C56.8617 121.524 54.749 117.673 55.9822 114.082C57.3224 110.179 61.904 107.409 65.5302 109.344C70.3897 111.936 74.145 111.503 79.2898 109.475C83.4075 107.853 87.3435 106.247 90.8654 103.678C93.1507 102.01 94.881 99.782 95.5809 96.1574C90.5243 98.2048 86.3633 101.477 80.7768 100.78C90.1507 93.9585 94.7143 84.7846 95.6426 72.3941C89.832 77.3311 83.7749 76.1416 77.96 76.1338C73.3011 76.1275 69.4492 74.2063 67.6216 69.6961C66.5437 67.0361 64.5713 67.4739 62.578 67.4389C60.735 67.4065 59.0835 67.3247 58.1963 69.6488C56.5545 73.9497 52.9203 75.8007 48.5728 76.1106C45.1791 76.3525 41.7467 76.2928 38.3446 76.1161C34.2044 75.9011 31.1895 73.5673 28.3179 70.4927C29.7727 76.3613 30.9086 82.3335 32.7694 88.0705C34.7505 94.1785 40.005 97.5404 45.2656 100.843C40.9342 100.935 37.4033 98.9656 33.8277 97.2011C31.5004 96.0526 29.3709 94.5088 26.4907 95.2762C25.3115 95.5904 24.3295 95.6668 24.1806 97.1885C23.9549 99.4958 22.1773 99.852 20.2892 100.249C18.2408 100.681 17.3426 99.7051 16.7328 98.0326C16.6595 97.8315 16.4865 97.6284 16.305 97.5106C7.50876 91.8056 7.13887 82.0974 4.82677 73.3217C4.16193 70.7984 3.91567 68.1297 2.98191 65.7196C1.16445 61.0288 1.37861 56.5244 3.89072 52.3008C5.93439 48.8648 5.79695 45.0469 6.10029 41.424C7.19837 28.3095 13.6538 18.6213 24.1209 11.1562C46.9835 -5.14909 84.9218 -3.3904 105.948 15.1807C113.462 21.8174 117.925 30.0641 118.599 40.3661C118.947 45.685 118.862 51.1973 121.856 56.1331C123.405 58.686 123.305 61.7046 122.474 64.7209C120.363 72.3855 118.416 80.0967 116.496 87.8121C115.881 90.2803 114.117 91.8854 112.643 93.7403C110.965 95.8522 108.104 96.8644 107.162 99.6698C107.074 99.9302 106.611 100.288 106.389 100.246C102.54 99.5251 101.762 102.845 100.253 105.016C98.0836 108.137 94.9772 110.251 92.1979 112.662C92.9132 114.174 94.2467 114.39 95.3011 114.968C111.04 123.597 121.509 136.122 124.381 154.265C124.523 155.159 124.479 156.082 124.603 156.98C125.012 159.946 123.796 160.926 120.786 160.921C81.8955 160.845 43.0049 160.88 4.11442 160.873C0.21309 160.873 -0.372941 160.156 0.175515 155.767C1.9093 141.895 8.45935 130.661 19.1374 121.795C25.8684 116.207 33.5071 112.247 41.9138 109.808C43.2826 109.411 44.6564 108.722 46.1815 109.265C46.5697 110.873 45.4737 111.886 44.819 113.011C41.961 117.924 39.0942 122.833 36.1191 127.675C35.154 129.246 35.243 130.234 36.7795 131.358C40.723 134.244 44.5581 137.278 48.4508 140.234C49.6402 141.138 51.1925 142.024 50.411 143.756C48.9983 146.886 50.8646 148.381 53.2123 150.006ZM79.5407 56.1481C80.7943 55.9842 82.1862 56.5546 83.712 55.3227C73.4567 49.2204 64.9449 41.5375 57.4075 31.8773C53.603 41.7345 47.2971 49.1111 39.8602 55.7734C41.7349 56.1659 43.3069 56.2153 44.8749 56.1571C50.7721 55.9379 55.9289 56.8758 58.6184 63.1964C59.5934 65.4877 66.3889 65.1114 67.4103 62.8389C69.6788 57.7914 73.6892 55.9536 79.5407 56.1481ZM72.6717 70.9209C77.2669 73.8725 82.3751 72.2394 87.2459 72.4143C91.2827 72.5594 94.209 69.5186 94.1505 66.0165C94.0925 62.5462 91.4437 60.0324 87.3651 59.8675C83.8643 59.7259 80.3524 59.8007 76.8467 59.8567C73.8048 59.9052 71.7549 61.5534 70.5183 64.2162C69.324 66.7879 70.4761 68.7977 72.6717 70.9209ZM40.2806 72.5136C43.3484 72.4889 46.4308 72.6418 49.4802 72.3923C52.9196 72.111 55.2695 69.5481 55.397 66.4197C55.5298 63.1639 53.3963 60.2454 50.0706 60.0168C45.7773 59.7218 41.4284 59.7164 37.1393 60.0485C33.8403 60.3039 31.7558 62.9904 31.7207 66.049C31.6861 69.0616 33.7857 71.6333 36.941 72.319C37.8178 72.5096 38.7481 72.4538 40.2806 72.5136ZM107.141 37.126C109.107 41.6914 109.842 46.5919 110.823 52.4417C113.813 47.8111 113.118 43.266 113.632 39.3245C114.269 34.4367 111.559 29.7033 108.401 25.6395C102.644 18.2308 92.9514 11.9737 89.2134 13.7058C93.2507 16.717 96.8697 19.948 99.8217 23.881C102.78 27.8223 105.096 32.0908 107.141 37.126ZM14.4653 29.3006C10.5498 35.171 11.1928 41.6052 12.3597 48.5358C15.8571 33.0724 23.5719 20.8248 36.9096 12.3253C27.332 15.0734 19.7663 20.2932 14.4653 29.3006Z" fill="#070929"/>
</svg>
