<svg xmlns="http://www.w3.org/2000/svg" width="48" height="48" id="creative-notes"><path d="M38 48H10c-1.103 0-2-.897-2-2V6c0-1.103.897-2 2-2h28c1.103 0 2 .897 2 2v40c0 1.103-.897 2-2 2zM10 6v40h28.001L38 6H10z"></path><path d="M18 10a1 1 0 1 1 0-2c1.654 0 3-1.346 3-3s-1.346-3-3-3-3 1.346-3 3a1 1 0 1 1-2 0c0-2.757 2.243-5 5-5s5 2.243 5 5-2.243 5-5 5zm12 0a1 1 0 1 1 0-2c1.654 0 3-1.346 3-3s-1.346-3-3-3-3 1.346-3 3a1 1 0 1 1-2 0c0-2.757 2.243-5 5-5s5 2.243 5 5-2.243 5-5 5zm3 29H15c-1.103 0-2-.897-2-2V15c0-1.103.897-2 2-2h18c1.103 0 2 .897 2 2v22c0 1.103-.897 2-2 2zM15 15v22h18.001L33 15H15z"></path><path d="M26.847 31h-5.694l-.51-3.059c-2.038-1.393-2.995-3.736-2.527-6.133.451-2.313 2.298-4.191 4.596-4.673 1.811-.381 3.658.06 5.068 1.205A5.98 5.98 0 0 1 30 23a5.983 5.983 0 0 1-2.611 4.925L26.847 31zm-4-2h2.306l.231-1.387a2.018 2.018 0 0 1 .873-1.337A3.981 3.981 0 0 0 28 23c0-1.211-.54-2.343-1.48-3.107-.955-.774-2.16-1.059-3.397-.8-1.521.319-2.744 1.564-3.043 3.099-.313 1.602.325 3.166 1.664 4.085.474.326.784.801.873 1.338l.23 1.385z"></path><path d="M25 35h-2c-1.103 0-2-.897-2-2v-4h6v4c0 1.103-.897 2-2 2zm-2-4v2h2.001L25 31h-2zm2-6h-2a1 1 0 1 1 0-2h2a1 1 0 1 1 0 2z"></path><path fill="none" d="M0 0h48v48H0z"></path></svg>