<svg width="146" height="128" viewBox="0 0 146 128" fill="none" xmlns="http://www.w3.org/2000/svg">
<path d="M139.327 62.2283L111.781 51.9056V20.9661C111.781 16.6888 109.129 12.8677 105.109 11.3564L76.593 0.662989C74.2832 -0.220996 71.7168 -0.220996 69.3785 0.662989L40.8629 11.3564C36.8422 12.8677 34.1902 16.6888 34.1902 20.9661V51.9056L6.64414 62.2283C2.65195 63.7396 0 67.5607 0 71.8381V103.234C0 107.112 2.1957 110.676 5.67461 112.416L34.1902 126.674C37.0703 128.128 40.4922 128.128 43.3723 126.674L73 111.846L102.628 126.674C105.508 128.128 108.93 128.128 111.81 126.674L140.325 112.416C143.804 110.676 146 107.112 146 103.234V71.8381C146 67.5607 143.348 63.7396 139.327 62.2283ZM102.086 52.1338L77.8477 61.2302V41.7826L102.086 31.2318V52.1338ZM43.9141 20.5669L73 9.67394L102.086 20.5669V20.738L73 32.5435L43.9141 20.738V20.5669ZM67.8672 103.576L43.6289 115.695V93.1393L67.8672 82.0752V103.576ZM67.8672 71.6385L38.7812 83.444L9.69531 71.6385V71.4674L38.7812 60.5744L67.8672 71.4674V71.6385ZM136.305 103.576L112.066 115.695V93.1393L136.305 82.0752V103.576ZM136.305 71.6385L107.219 83.444L78.1328 71.6385V71.4674L107.219 60.5744L136.305 71.4674V71.6385Z" fill="#070929"/>
</svg>
