<svg width="231" height="180" viewBox="0 0 231 180" fill="none" xmlns="http://www.w3.org/2000/svg">
<path d="M69.0337 47.3607C69.508 39.6226 69.9456 31.8392 73.0964 24.624C76.0601 17.8374 81.2637 13.2724 88.1906 10.6107C95.2912 7.88225 102.701 7.33011 110.14 7.83948C114.888 8.16462 119.697 8.9739 124.263 10.3042C133.551 13.0098 139.536 19.3847 142.396 28.5811C144.029 33.8344 144.855 39.2491 144.909 44.7779C144.945 48.4915 145.281 52.2042 145.258 55.9159C145.212 63.2034 143.61 70.2206 140.351 76.7023C137.493 82.3866 133.481 87.2304 128.515 91.3747C124.496 94.7285 120.025 97.098 115.289 99.0559C109.381 101.498 103.441 100.982 97.6255 98.618C90.7565 95.8264 84.8821 91.5267 80.0838 85.9472C75.0718 80.1192 71.7006 73.3422 70.2338 65.7392C69.766 63.3145 69.6575 60.8204 69.3881 57.9807C69.3813 56.3179 69.4031 55.0312 69.3534 53.7473C69.271 51.6175 69.1427 49.4894 69.0337 47.3607Z" fill="#070929"/>
<path d="M121.181 156.299C122.531 158.379 123.836 160.558 126.567 160.99C127.878 161.198 129.234 161.126 130.945 161.231C135.279 161.271 139.237 161.262 143.194 161.252C143.329 161.485 143.61 161.742 143.576 161.946C143.216 164.087 142.848 166.229 142.37 168.345C142.281 168.737 141.731 169.246 141.33 169.313C137.643 169.923 133.957 170.604 130.241 170.958C125.617 171.398 120.964 171.548 115.942 171.815C111.833 171.816 108.106 171.803 104.38 171.85C103.329 171.864 102.281 172.057 101.231 172.167C95.5355 171.792 89.807 171.682 84.1535 170.972C77.8156 170.177 71.4599 169.188 65.2661 167.659C55.8894 165.344 47.1029 161.594 40.1281 154.567C38.9709 153.401 38.0795 151.956 37.1506 150.582C35.8572 148.67 36.3575 146.534 36.8917 144.603C38.6242 138.339 40.3027 132.038 42.5026 125.932C44.4696 120.472 47.6575 115.851 53.1301 112.972C62.5117 108.036 71.715 102.761 80.9987 97.639C81.864 97.1616 82.7312 96.6325 83.6645 96.3452C85.3361 95.8306 86.5861 96.872 87.7974 97.7869C91.4939 100.579 95.5451 102.494 100.15 103.302C100.925 103.438 101.808 104.442 102.161 105.253C103.589 108.538 104.826 111.906 106.144 115.24C106.432 115.968 106.761 116.68 107.118 117.51C108.63 113.509 110.024 109.648 111.56 105.845C112.097 104.513 112.901 103.4 114.608 103.047C119.306 102.077 123.401 99.7772 127.34 97.0816C128.269 96.4458 130.062 96.2264 131.055 96.6858C134.227 98.1536 137.209 100.031 140.104 101.893C136.432 102.035 132.92 102.008 129.409 102.054C128.714 102.063 128.023 102.349 127.33 102.507C124.161 103.315 122.028 105.276 120.704 108.59C120.495 109.197 120.408 109.532 120.408 109.867C120.391 124.12 120.377 138.374 120.392 152.627C120.393 153.18 120.686 153.732 120.843 154.284C120.843 154.284 120.815 154.271 120.758 154.403C120.862 155.123 121.021 155.711 121.181 156.299Z" fill="#070929"/>
<path d="M128.064 155.485C127.442 155.033 126.82 154.582 126.33 153.948C126.617 153.077 126.907 152.388 126.909 151.699C126.935 138.448 126.934 125.197 126.913 111.946C126.912 111.228 126.691 110.512 126.551 109.671C126.523 109.465 126.516 109.382 126.508 109.299C126.822 108.952 127.136 108.605 127.769 108.219C150.577 108.174 173.066 108.167 195.556 108.161C196.05 108.603 196.543 109.046 197.072 109.802C197.116 124.574 197.124 139.031 197.132 153.489C196.617 154.152 196.155 155.331 195.578 155.391C193.092 155.648 190.572 155.577 187.726 155.553C182.806 155.474 178.225 155.463 173.644 155.466C172.842 155.466 171.81 155.324 172.567 156.705C173.624 159.87 174.714 163.024 175.726 166.203C176.28 167.945 175.524 168.996 173.505 169.371C173.172 169.358 173.102 169.345 172.902 169.226C165.629 169.076 158.484 169.03 151.34 169.004C151.102 169.003 150.863 169.212 150.517 169.346C150.337 169.375 150.264 169.381 150.191 169.387C147.815 168.925 147.189 167.508 148.076 165.071C148.914 162.768 149.571 160.399 150.549 157.887C150.945 157.031 151.101 156.347 151.297 155.485C143.355 155.485 135.71 155.485 128.064 155.485ZM190.195 149.382C190.195 149.382 190.155 149.382 190.451 149.193C190.499 148.997 190.59 148.801 190.59 148.605C190.602 137.46 190.61 126.316 190.59 115.172C190.59 114.759 190.306 114.345 190.163 113.872C190.163 113.872 190.192 113.819 189.924 113.614C189.592 113.563 189.259 113.468 188.927 113.467C170.871 113.46 152.815 113.457 134.76 113.478C134.191 113.479 133.622 113.742 133.001 114.246C133.016 115.23 133.031 116.214 133.066 117.572C133.21 128.149 133.355 138.726 133.386 149.533C133.693 149.614 133.999 149.767 134.305 149.767C148.3 149.781 162.295 149.788 176.29 149.764C176.84 149.763 177.39 149.464 177.941 148.983C178.365 148.431 178.69 147.568 179.236 147.393C180.253 147.065 181.182 147.452 181.612 148.648C181.764 149.072 182.171 149.566 182.565 149.683C182.825 149.761 183.561 149.247 183.58 148.964C183.657 147.818 184.003 147.173 185.294 147.337C186.503 147.49 187.208 148.091 187.514 149.583C188.408 149.503 189.302 149.423 190.195 149.382Z" fill="#070929"/>
</svg>
